<?xml version="1.0" standalone="no"?>
<!DOCTYPE svg PUBLIC "-//W3C//DTD SVG 20010904//EN"
 "http://www.w3.org/TR/2001/REC-SVG-20010904/DTD/svg10.dtd">
<svg version="1.0" xmlns="http://www.w3.org/2000/svg"
 width="512.000000pt" height="512.000000pt" viewBox="0 0 512.000000 512.000000"
 preserveAspectRatio="xMidYMid meet">
<metadata>
Created by potrace 1.14, written by Peter Selinger 2001-2017
</metadata>
<g transform="translate(0.000000,512.000000) scale(0.100000,-0.100000)"
fill="#000000" stroke="none">
<path d="M199 4731 c-77 -24 -151 -93 -179 -169 -19 -51 -20 -78 -20 -736 0
-676 0 -684 21 -710 26 -33 79 -36 109 -6 20 20 20 33 20 698 0 624 1 680 18
712 35 72 17 70 675 70 l587 0 0 -1070 0 -1069 -433 -3 -433 -3 -43 -28 c-50
-33 -77 -88 -86 -169 l-6 -58 -140 0 -139 0 0 319 0 320 -27 21 c-33 26 -79
21 -106 -12 -17 -20 -17 -56 -15 -577 3 -548 3 -557 25 -596 26 -48 85 -106
133 -131 24 -12 65 -19 128 -22 50 -2 92 -7 92 -11 0 -3 -16 -206 -35 -451
-42 -538 -42 -531 -10 -586 41 -69 84 -84 246 -84 122 0 137 2 157 20 30 28
29 80 -1 108 -21 20 -34 22 -145 22 -100 0 -124 3 -128 15 -6 16 124 1724 133
1737 2 5 280 8 617 8 l613 0 7 -31 c3 -17 6 -42 6 -55 l0 -24 -181 0 c-113 0
-188 -4 -202 -11 -50 -26 -86 -72 -97 -123 -9 -46 -50 -498 -50 -555 0 -23 -2
-24 -73 -19 -117 8 -211 70 -269 180 -21 40 -23 60 -28 248 -3 139 -9 212 -18
227 -26 45 -105 41 -129 -7 -16 -31 -17 -292 -3 -395 29 -208 202 -376 416
-406 43 -6 81 -12 83 -14 2 -2 -12 -177 -30 -389 l-33 -386 -95 0 c-103 -1
-123 -8 -140 -51 -11 -30 8 -83 34 -93 9 -3 566 -6 1238 -6 1179 0 1223 1
1264 19 26 12 52 35 70 62 27 40 28 48 28 158 0 103 -3 121 -23 156 -13 22
-39 52 -59 65 -33 22 -49 25 -150 29 l-113 3 0 319 0 319 823 2 c821 3 822 3
862 25 47 25 105 84 131 133 18 34 19 92 22 1435 3 1570 8 1457 -71 1543 -23
24 -59 53 -82 65 l-40 22 -1277 3 c-1269 2 -1278 2 -1298 -18 -30 -30 -27 -83
6 -109 27 -21 27 -21 1273 -21 1218 0 1247 -1 1278 -20 67 -41 63 41 63 -1235
l0 -1155 -1489 0 -1488 0 -6 69 c-6 75 -21 113 -59 148 -38 36 -73 43 -209 43
l-129 0 0 1075 0 1075 225 0 c242 0 268 5 283 50 11 32 -7 84 -33 94 -24 9
-1835 6 -1866 -3z m215 -2738 c-6 -56 -24 -291 -24 -314 0 -17 -7 -19 -66 -19
-40 0 -79 6 -100 16 -57 27 -68 60 -72 217 l-4 137 135 0 135 0 -4 -37z m4246
-105 c0 -120 -4 -150 -20 -185 l-19 -43 -1021 0 c-965 0 -1020 1 -1020 18 0 9
-7 89 -15 177 -8 88 -15 163 -15 168 0 4 475 7 1055 7 l1055 0 0 -142z m-1932
-497 c-3 -102 -6 -124 -24 -147 -25 -34 -72 -70 -80 -62 -4 5 -33 277 -34 321
0 4 32 7 71 7 l71 0 -4 -119z m542 -771 l0 -90 -294 0 -295 0 -5 43 c-3 23 -7
63 -9 90 l-5 47 304 0 304 0 0 -90z"/>
<path d="M3953 4441 c-97 -35 -198 -123 -244 -213 -135 -263 22 -575 316 -629
186 -35 386 71 467 248 43 93 50 210 19 311 -39 129 -142 236 -273 282 -76 27
-212 27 -285 1z m243 -148 c70 -24 147 -103 168 -173 50 -168 -36 -323 -203
-365 -107 -28 -199 1 -276 87 -106 118 -94 299 26 401 75 65 185 84 285 50z"/>
<path d="M4116 4121 l-71 -69 -24 19 c-32 26 -67 24 -96 -6 -40 -39 -33 -69
32 -136 47 -50 61 -59 91 -59 30 0 47 12 138 103 94 93 104 106 104 139 0 28
-6 42 -26 57 -45 36 -69 28 -148 -48z"/>
<path d="M1970 4393 c-51 -19 -68 -85 -30 -123 18 -18 33 -20 148 -20 121 0
130 1 150 23 36 38 28 88 -19 112 -28 15 -215 21 -249 8z"/>
<path d="M710 4287 c-94 -26 -163 -88 -206 -181 -23 -52 -26 -67 -22 -140 5
-96 28 -147 94 -212 135 -131 362 -108 475 49 35 48 38 98 9 127 -26 26 -84
27 -106 1 -69 -83 -91 -99 -137 -106 -38 -6 -55 -3 -94 16 -152 76 -100 299
70 299 l49 0 -63 -71 c-52 -59 -63 -77 -63 -106 0 -42 32 -73 75 -73 33 0 55
19 163 142 62 72 76 94 76 121 0 92 -190 171 -320 134z"/>
<path d="M1940 4080 c-30 -30 -27 -83 6 -109 26 -21 36 -21 491 -21 l464 0 24
25 c30 30 32 64 4 99 l-20 26 -475 0 c-461 0 -475 -1 -494 -20z"/>
<path d="M1946 3849 c-33 -26 -36 -79 -6 -109 19 -19 33 -20 494 -20 l475 0
20 26 c28 35 26 69 -4 99 l-24 25 -464 0 c-455 0 -465 0 -491 -21z"/>
<path d="M3242 3637 c-31 -33 -29 -80 4 -106 24 -19 40 -21 153 -21 l126 0 73
-292 c64 -258 72 -304 72 -385 0 -50 4 -103 10 -117 7 -20 5 -33 -12 -62 -50
-85 -14 -216 75 -268 147 -86 316 11 317 182 l0 52 43 0 42 0 0 -57 c0 -101
60 -179 158 -205 85 -22 178 18 228 99 19 30 24 53 24 105 1 48 6 72 18 86 24
27 22 74 -6 100 -23 22 -27 22 -385 22 l-362 0 0 40 0 40 272 0 c389 0 383 -4
447 306 40 190 41 218 13 262 -33 51 -42 52 -466 52 l-395 0 -11 43 c-6 23
-16 59 -21 79 -16 63 -31 68 -224 68 -166 0 -172 -1 -193 -23z m650 -1034 c46
-41 -2 -120 -58 -94 -58 26 -43 110 20 111 11 0 28 -7 38 -17z m498 -3 c11
-11 20 -29 20 -40 0 -11 -9 -29 -20 -40 -11 -11 -29 -20 -40 -20 -11 0 -29 9
-40 20 -11 11 -20 29 -20 40 0 11 9 29 20 40 11 11 29 20 40 20 11 0 29 -9 40
-20z"/>
<path d="M2015 3426 c-37 -17 -80 -62 -94 -99 -6 -16 -11 -100 -11 -190 0
-179 11 -223 65 -265 53 -42 79 -43 601 -40 l500 3 41 27 c66 43 77 79 81 254
5 207 -12 260 -99 304 -37 19 -60 20 -546 20 -402 -1 -514 -4 -538 -14z m1023
-285 c2 -109 -1 -146 -10 -153 -22 -13 -942 -10 -956 4 -13 13 -18 279 -5 291
3 4 223 6 487 5 l481 -3 3 -144z"/>
<path d="M420 3400 c-28 -28 -26 -81 3 -108 23 -22 28 -22 354 -22 319 0 331
1 357 21 34 27 36 77 3 107 -23 22 -28 22 -360 22 -324 0 -338 -1 -357 -20z"/>
<path d="M422 3117 c-28 -30 -29 -80 -2 -107 19 -19 33 -20 358 -20 l339 0 21
23 c29 31 29 77 -1 105 -23 22 -28 22 -358 22 l-336 0 -21 -23z"/>
<path d="M426 2839 c-46 -36 -32 -108 25 -128 44 -15 614 -15 658 0 55 19 69
82 26 124 l-24 25 -329 0 c-318 0 -330 -1 -356 -21z"/>
<path d="M2964 2738 c-29 -14 -45 -51 -38 -88 l7 -30 -166 0 c-158 0 -167 -1
-187 -22 -37 -40 -22 -98 31 -117 18 -6 97 -11 177 -11 l144 0 -6 -24 c-13
-51 43 -107 91 -92 10 3 54 42 97 85 108 108 107 116 -6 227 -85 84 -103 93
-144 72z"/>
</g>
</svg>
